<?xml version="1.0" standalone="no"?><!DOCTYPE svg PUBLIC "-//W3C//DTD SVG 1.1//EN" "http://www.w3.org/Graphics/SVG/1.1/DTD/svg11.dtd"><svg t="1763615219486" class="icon" viewBox="0 0 1024 1024" version="1.1" xmlns="http://www.w3.org/2000/svg" p-id="2304" xmlns:xlink="http://www.w3.org/1999/xlink" width="128" height="128"><path d="M909.44 163.008l-48.448-48.512a8.64 8.64 0 0 0-12.16 0l-169.344 169.472-58.816-58.88a8.512 8.512 0 0 0-14.464 5.12l-25.28 203.328c-0.64 5.568 3.968 10.24 9.6 9.6l203.392-25.344a8.576 8.576 0 0 0 5.056-14.464l-58.88-58.88 169.472-169.408a8.576 8.576 0 0 0-0.064-12.032z m-475.904 417.92l-203.456 25.28a8.576 8.576 0 0 0-5.056 14.464l58.816 58.88-169.344 169.28a8.64 8.64 0 0 0 0 12.16l48.512 48.512a8.64 8.64 0 0 0 12.16 0l169.408-169.472 58.88 58.88a8.512 8.512 0 0 0 14.464-5.12l25.152-203.328a8.512 8.512 0 0 0-9.6-9.6z" p-id="2305" fill="#8a8a8a"></path></svg>