<?xml version="1.0" standalone="no"?><!DOCTYPE svg PUBLIC "-//W3C//DTD SVG 1.1//EN" "http://www.w3.org/Graphics/SVG/1.1/DTD/svg11.dtd"><svg t="1763615201544" class="icon" viewBox="0 0 1024 1024" version="1.1" xmlns="http://www.w3.org/2000/svg" p-id="2051" width="128" height="128" xmlns:xlink="http://www.w3.org/1999/xlink"><path d="M901.76 112.064l-215.04 26.752a9.024 9.024 0 0 0-5.312 15.36l62.208 62.08-174.464 174.464a9.152 9.152 0 0 0 0 12.864l51.2 51.264a9.152 9.152 0 0 0 12.928 0l174.528-174.592 62.144 62.208a9.024 9.024 0 0 0 15.36-5.376l26.624-214.912a8.96 8.96 0 0 0-10.112-10.112zM403.648 569.152a9.152 9.152 0 0 0-12.8 0l-174.528 174.592-62.144-62.144a9.024 9.024 0 0 0-15.36 5.312l-26.688 214.912a9.088 9.088 0 0 0 10.112 10.112l215.04-26.688a9.024 9.024 0 0 0 5.312-15.36l-62.144-62.144 174.528-174.592a9.152 9.152 0 0 0 0-12.8l-51.328-51.2z" p-id="2052" fill="#8a8a8a"></path></svg>