<?xml version="1.0" standalone="no"?><!DOCTYPE svg PUBLIC "-//W3C//DTD SVG 1.1//EN" "http://www.w3.org/Graphics/SVG/1.1/DTD/svg11.dtd"><svg t="1763617275254" class="icon" viewBox="0 0 1024 1024" version="1.1" xmlns="http://www.w3.org/2000/svg" p-id="2493" xmlns:xlink="http://www.w3.org/1999/xlink" width="128" height="128"><path d="M902.912 813.12H121.088a9.024 9.024 0 0 0-9.088 8.96V889.6c0 4.928 4.032 8.96 9.088 8.96h781.824a9.024 9.024 0 0 0 9.088-8.96v-67.392a9.024 9.024 0 0 0-9.088-8.96z m-398.016-124.736a8.96 8.96 0 0 0 14.208 0l125.824-159.168a8.96 8.96 0 0 0-7.04-14.528H554.496v-380.16a8.96 8.96 0 0 0-8.96-9.024H478.208a8.96 8.96 0 0 0-8.96 8.96v380.16H386.112a8.96 8.96 0 0 0-7.04 14.464l125.76 159.36z" p-id="2494" fill="#8a8a8a"></path></svg>